<?xml version="1.0" standalone="no" ?>
<!DOCTYPE svg PUBLIC "-//W3C//DTD SVG 1.1//EN" "http://www.w3.org/Graphics/SVG/1.1/DTD/svg11.dtd">
<svg width="82px" height="91px" viewBox="0 0 82 91" style="background-color: #ffffff00" xmlns="http://www.w3.org/2000/svg" xmlns:xlink="http://www.w3.org/1999/xlink" version="1.1" >
<path stroke="none" fill="#000000" transform="matrix(0.0666667 0 0 0.0666667 -154.733 -8.33333)" d="M 2677.08,654.464 L 2683.08,651 L 2689.08,654.464 L 2689.08,935.536 L 2683.08,939 L 2677.08,935.536 L 2677.08,654.464 Z " />
<path stroke="none" fill="#000000" transform="matrix(0.0666667 0 0 0.0666667 -154.733 -8.33333)" d="M 2728.92,680.93 L 2740.92,680.93 L 2740.92,909.07 L 2728.92,909.07 L 2728.92,680.93 Z " />
<path stroke="none" fill="#000000" transform="matrix(0.0666667 0 0 0.0666667 -154.733 -8.33333)" d="M 2683.08,945.928 L 2683.08,939 L 2689.08,935.536 L 2932.5,1076.07 L 2932.5,1083 L 2926.5,1086.46 L 2683.08,945.928 Z " />
<path stroke="none" fill="#000000" transform="matrix(0.0666667 0 0 0.0666667 -154.733 -8.33333)" d="M 2938.5,1086.46 L 2932.5,1083 L 2932.5,1076.07 L 3175.92,935.536 L 3181.92,939 L 3181.92,945.928 L 2938.5,1086.46 Z " />
<path stroke="none" fill="#000000" transform="matrix(0.0666667 0 0 0.0666667 -154.733 -8.33333)" d="M 2935.5,1028.34 L 2929.5,1017.94 L 3127.08,903.874 L 3133.08,914.266 L 2935.5,1028.34 Z " />
<path stroke="none" fill="#000000" transform="matrix(0.0666667 0 0 0.0666667 -154.733 -8.33333)" d="M 3187.92,935.536 L 3181.92,939 L 3175.92,935.536 L 3175.92,654.464 L 3181.92,651 L 3187.92,654.464 L 3187.92,935.536 Z " />
<path stroke="none" fill="#000000" transform="matrix(0.0666667 0 0 0.0666667 -154.733 -8.33333)" d="M 3181.92,644.072 L 3181.92,651 L 3175.92,654.464 L 2932.5,513.928 L 2932.5,507 L 2940.7,504.804 L 3181.92,644.072 Z " />
<path stroke="none" fill="#000000" transform="matrix(0.0666667 0 0 0.0666667 -154.733 -8.33333)" d="M 2924.3,504.804 L 2932.5,507 L 2932.5,513.928 L 2689.08,654.464 L 2683.08,651 L 2683.08,644.072 L 2924.3,504.804 Z " />
<text x="0" y="0" stroke="none" fill="#000000" transform="matrix(0.0666667 0 0 0.0666667 21.9056 14.039)" font-style="normal" font-weight="normal" font-size="200px" font-family="Arial" >
Mu</text>
<path stroke="none" fill="#000000" transform="matrix(0.0666667 0 0 0.0666667 -154.733 -8.33333)" d="M 2932.5,495 L 2932.5,507 L 2924.3,504.804 L 2855.86,386.247 L 2866.25,380.247 L 2932.5,495 Z " />
<text x="0" y="0" stroke="none" fill="#000000" transform="matrix(0.0666667 0 0 0.0666667 45.5522 14.039)" font-style="normal" font-weight="normal" font-size="200px" font-family="Arial" >
H</text>
<path stroke="none" fill="#000000" transform="matrix(0.0666667 0 0 0.0666667 -154.733 -8.33333)" d="M 2940.7,504.804 L 2932.5,507 L 2932.5,495 L 3008.09,364.082 L 3018.48,370.082 L 2940.7,504.804 Z " />
<text x="0" y="0" stroke="none" fill="#000000" transform="matrix(0.0666667 0 0 0.0666667 69.2076 30.6667)" font-style="normal" font-weight="normal" font-size="200px" font-family="Arial" >
H</text>
<path stroke="none" fill="#000000" transform="matrix(0.0666667 0 0 0.0666667 -154.733 -8.33333)" d="M 3187.92,654.464 L 3181.92,651 L 3181.92,644.072 L 3326.66,560.505 L 3332.66,570.897 L 3187.92,654.464 Z " />
<text x="0" y="0" stroke="none" fill="#000000" transform="matrix(0.0666667 0 0 0.0666667 69.2076 69.0667)" font-style="normal" font-weight="normal" font-size="200px" font-family="Arial" >
H</text>
<path stroke="none" fill="#000000" transform="matrix(0.0666667 0 0 0.0666667 -154.733 -8.33333)" d="M 3181.92,945.928 L 3181.92,939 L 3187.92,935.536 L 3338,1022.19 L 3332,1032.58 L 3181.92,945.928 Z " />
<text x="0" y="0" stroke="none" fill="#000000" transform="matrix(0.0666667 0 0 0.0666667 35.9522 88.2667)" font-style="normal" font-weight="normal" font-size="200px" font-family="Arial" >
H</text>
<path stroke="none" fill="#000000" transform="matrix(0.0666667 0 0 0.0666667 -154.733 -8.33333)" d="M 2926.5,1086.46 L 2932.5,1083 L 2938.5,1086.46 L 2938.5,1276.17 L 2926.5,1276.17 L 2926.5,1086.46 Z " />
<text x="0" y="0" stroke="none" fill="#000000" transform="matrix(0.0666667 0 0 0.0666667 2.69685 69.0667)" font-style="normal" font-weight="normal" font-size="200px" font-family="Arial" >
H</text>
<path stroke="none" fill="#000000" transform="matrix(0.0666667 0 0 0.0666667 -154.733 -8.33333)" d="M 2677.08,935.536 L 2683.08,939 L 2683.08,945.928 L 2533.43,1032.33 L 2527.43,1021.94 L 2677.08,935.536 Z " />
<text x="0" y="0" stroke="none" fill="#000000" transform="matrix(0.0666667 0 0 0.0666667 2.69685 30.6667)" font-style="normal" font-weight="normal" font-size="200px" font-family="Arial" >
H</text>
<path stroke="none" fill="#000000" transform="matrix(0.0666667 0 0 0.0666667 -154.733 -8.33333)" d="M 2683.08,644.072 L 2683.08,651 L 2677.08,654.464 L 2532.77,571.143 L 2538.77,560.75 L 2683.08,644.072 Z " />
<path stroke="none" fill="#000000" transform="matrix(0.0666667 0 0 0.0666667 -154.733 -8.33333)" d="M 3115.84,678.774 A 16.6667,16.6667 0 1 0 3149.17,678.774 A 16.6667,16.6667 0 1 0 3115.84,678.774 Z " />
</svg>
