<svg class="main-svg" xmlns="http://www.w3.org/2000/svg" xmlns:xlink="http://www.w3.org/1999/xlink" width="600" height="600" style="" viewBox="0 0 600 600"><rect x="0" y="0" width="600" height="600" style="fill: rgb(255, 255, 255); fill-opacity: 1;"/><defs id="defs-01e76b"><g class="clips"><clipPath id="clip01e76bxyplot" class="plotclip"><rect width="600" height="600"/></clipPath><clipPath class="axesclip" id="clip01e76bx"><rect x="0" y="0" width="600" height="600"/></clipPath><clipPath class="axesclip" id="clip01e76by"><rect x="0" y="0" width="600" height="600"/></clipPath><clipPath class="axesclip" id="clip01e76bxy"><rect x="0" y="0" width="600" height="600"/></clipPath></g><g class="gradients"/><g class="patterns"/></defs><g class="bglayer"/><g class="layer-below"><g class="imagelayer"/><g class="shapelayer"/></g><g class="cartesianlayer"><g class="subplot xy"><g class="layer-subplot"><g class="shapelayer"/><g class="imagelayer"/></g><g class="minor-gridlayer"><g class="x"/><g class="y"/></g><g class="gridlayer"><g class="x"/><g class="y"/></g><g class="zerolinelayer"/><g class="layer-between"><g class="shapelayer"/><g class="imagelayer"/></g><path class="xlines-below"/><path class="ylines-below"/><g class="overlines-below"/><g class="xaxislayer-below"/><g class="yaxislayer-below"/><g class="overaxes-below"/><g class="overplot"><g class="xy" transform="" clip-path="url(#clip01e76bxyplot)"><g class="scatterlayer mlayer"><g class="trace scatter trace8df18f" style="stroke-miterlimit: 2; opacity: 1;"><g class="fills"/><g class="errorbars"/><g class="lines"><path class="js-line" d="M75,375L75.75,360.06L75.76,359.94L77.61,347.12L77.64,347.01L80.35,335.3L80.38,335.19L84.4,322.74L84.44,322.63L89.84,309.96L89.89,309.85L96.68,297.32L96.74,297.22L104.7,285.4L104.77,285.3L116.31,271.62L116.39,271.54L129.94,258.96L130.04,258.89L141,250.73L141.09,250.66L156.08,241.77L156.19,241.72L168.93,235.87L169.04,235.83L180.24,231.83L180.35,231.8L195.76,227.88L195.88,227.85L214.08,225.4L214.2,225.39L227.03,225.01L227.15,225.02L240.2,225.77L240.32,225.78L259.02,228.91L259.13,228.94L271.5,232.39L271.61,232.43L284.61,237.35L284.71,237.4L295.64,242.67L295.74,242.73L307.49,249.72L307.58,249.78L318.82,257.96L318.91,258.04L328.57,266.49L328.65,266.58L338.17,276.55L338.24,276.64L344.63,284.5L344.7,284.6L354.02,298.48L354.08,298.58L361.97,313.86L362.02,313.96L367.04,326.8L367.08,326.91L370.45,338.32L370.47,338.43L373.22,351.94L373.23,352.06L374.63,364.46L374.64,364.58L374.75,383.66L374.74,383.77L373.48,396.31L373.46,396.43L371.03,409.28L371,409.39L367.57,421.64L367.53,421.75L362.68,434.53L362.64,434.63L354.73,450.3L354.67,450.4L345.33,464.55L345.26,464.65L336.29,475.57L336.21,475.66L323.52,488.11L323.43,488.19L309.15,499.17L309.05,499.24L296.99,506.6L296.88,506.65L287.83,511.21L287.73,511.26L267.79,518.77L267.67,518.8L255.68,521.83L255.57,521.85L242.08,524.02L241.96,524.04L223.03,524.99L222.91,524.99L203.89,523.51L203.77,523.49L190.81,521.05L190.7,521.02L178.45,517.59L178.33,517.56L159.98,510.18L159.88,510.13L144.94,501.85L144.84,501.79L131.13,492L131.04,491.93L118.03,480.16L117.95,480.07L108.83,469.9L108.76,469.8L100.75,459.03L100.68,458.93L93.39,446.96L93.33,446.86L85.89,431.1L85.84,430.99L81.19,417.65L81.16,417.53L78.19,405.77L78.17,405.65L75.97,392.05L75.96,391.93L75.06,379.24L75.06,379.12L75,375" style="vector-effect: none; fill: none; stroke: rgb(231, 63, 116); stroke-opacity: 1; stroke-width: 3px; opacity: 1;"/></g><g class="points"/><g class="text"/></g><g class="trace scatter traced1812a" style="stroke-miterlimit: 2; opacity: 1;"><g class="fills"/><g class="errorbars"/><g class="lines"><path class="js-line" d="M125,375L125.75,357.76L125.76,357.68L127.3,345.02L127.31,344.94L129.49,333.48L129.51,333.4L132.26,322.77L132.29,322.69L137.29,308.27L137.33,308.19L141.33,299.09L141.37,299.01L147.87,286.94L147.92,286.86L157.6,272.72L157.67,272.64L165.7,263.18L165.77,263.1L173.49,255.4L173.57,255.33L183.89,246.68L183.98,246.61L195.47,238.76L195.57,238.7L203.51,234.17L203.62,234.12L217.05,227.91L217.16,227.87L231.84,222.91L231.97,222.87L249.98,219.08L250.11,219.06L263.44,217.76L263.57,217.75L280.37,217.85L280.5,217.86L296.74,219.8L296.88,219.82L312.73,223.51L312.86,223.55L327.7,228.72L327.83,228.77L341.36,235.09L341.49,235.16L355.38,243.47L355.5,243.55L370.42,254.97L370.53,255.06L379.55,263.53L379.65,263.64L389,274.04L389.09,274.16L397.44,285.33L397.52,285.45L404.81,297.26L404.88,297.4L409.44,306.21L409.5,306.35L414.46,317.92L414.52,318.07L418.64,330.35L418.68,330.5L421.24,340.51L421.27,340.66L424.17,358.77L424.19,358.93L424.92,370.05L424.93,370.21L424.25,390.45L424.24,390.6L421.13,409.95L421.1,410.1L418.38,420.55L418.33,420.7L414.69,431.49L414.63,431.64L408.49,445.75L408.42,445.89L399.4,461.73L399.31,461.85L392.41,471.64L392.32,471.76L382.79,483.07L382.69,483.18L370.08,495.33L369.96,495.43L358.31,504.51L358.19,504.6L336.94,517.15L336.81,517.21L324.49,522.55L324.35,522.6L308.78,527.58L308.64,527.61L293.87,530.68L293.73,530.7L278.06,532.27L277.93,532.28L261.72,532.14L261.59,532.14L245.13,530.13L245,530.11L228.11,526L227.99,525.96L214.79,521.16L214.68,521.11L202.78,515.44L202.68,515.38L191.29,508.57L191.19,508.51L178.07,498.66L177.99,498.58L168.7,489.96L168.62,489.89L156.74,476.15L156.68,476.07L150.55,467.35L150.5,467.27L143.11,454.49L143.07,454.41L135.05,435.83L135.03,435.74L131.13,423.21L131.11,423.13L126.89,402.26L126.88,402.18L125.13,382.31L125.13,382.23L125,375" style="vector-effect: none; fill: none; stroke: rgb(0, 0, 0); stroke-opacity: 1; stroke-width: 3px; opacity: 1;"/></g><g class="points"/><g class="text"/></g><g class="trace scatter tracead3ccf" style="stroke-miterlimit: 2; opacity: 1;"><g class="fills"/><g class="errorbars"/><g class="lines"><path class="js-line" d="M225,375L220.84,373.98L220.81,373.97L215.05,371.03L215.02,371L208.31,365.65L208.27,365.61L203.02,359.76L202.98,359.7L197.43,351.22L197.39,351.15L193.45,342.75L193.42,342.66L190.4,333.37L190.38,333.28L188.15,321.31L188.14,321.2L187.5,311.01L187.5,310.89L188.25,297.67L188.27,297.54L190.5,285.17L190.54,285.04L193.97,273.5L194.01,273.36L200.56,258.27L200.63,258.14L207.71,246.1L207.8,245.97L213.78,237.67L213.88,237.54L226.22,223.8L226.34,223.68L235.98,215.1L236.11,215L245.76,207.8L245.9,207.7L260.18,199.07L260.34,198.99L271.12,193.78L271.29,193.71L281.95,189.52L282.13,189.46L292.71,186.15L292.89,186.1L309.85,182.39L310.04,182.36L327.9,180.41L328.1,180.4L344.81,180.3L345.01,180.31L361.75,181.83L361.95,181.86L378.33,184.95L378.53,185L394.17,189.48L394.38,189.55L411.75,196.4L411.94,196.49L426.06,203.66L426.25,203.76L438.92,211.58L439.11,211.71L451.92,221.15L452.09,221.29L466.93,234.58L467.1,234.74L478.83,247.52L478.98,247.7L489.59,261.59L489.72,261.78L499.43,277.28L499.54,277.48L506.74,291.58L506.83,291.79L512.39,305.16L512.47,305.38L516.3,316.69L516.37,316.92L520.15,331.21L520.2,331.44L523.37,349.51L523.4,349.74L524.85,367.34L524.86,367.58L524.82,383.6L524.8,383.83L523.37,400.49L523.34,400.72L520.6,416.72L520.55,416.95L516.1,433.98L516.03,434.2L510.62,449.42L510.53,449.64L501.55,468.85L501.44,469.05L493.7,482.25L493.57,482.45L484.57,495.3L484.43,495.48L475.55,506.29L475.39,506.47L463.84,518.43L463.67,518.59L450.16,530.25L449.98,530.39L435.94,540.38L435.75,540.5L423.74,547.63L423.55,547.73L409.55,554.58L409.35,554.67L395.81,559.96L395.6,560.03L380.6,564.49L380.39,564.54L370.66,566.69L370.46,566.73L354.5,569.02L354.29,569.04L337.84,569.86L337.64,569.86L321.48,569.11L321.28,569.09L304.81,566.7L304.62,566.66L294.2,564.26L294.01,564.21L279.81,559.71L279.64,559.65L263.1,552.44L262.93,552.36L250.51,545.32L250.36,545.22L242.73,540.07L242.59,539.97L231.66,531.25L231.53,531.14L215.38,514.34L215.28,514.21L207.88,504.16L207.8,504.03L201.74,493.97L201.67,493.84L195.82,481.4L195.77,481.27L191.63,469.14L191.59,469L188.64,455.22L188.62,455.1L187.55,443.26L187.55,443.14L187.83,431.89L187.84,431.78L189.71,419.48L189.74,419.38L192.32,410.3L192.35,410.21L198.55,396.81L198.59,396.74L206.97,385.68L207.02,385.64L212.73,380.59L212.77,380.56L219.07,376.76L219.1,376.75L224.52,375.04L224.53,375.04L225,375L225,375" style="vector-effect: none; fill: none; stroke: rgb(29, 105, 150); stroke-opacity: 1; stroke-width: 3px; opacity: 1;"/></g><g class="points"/><g class="text"/></g></g></g></g><g class="zerolinelayer-above"/><path class="xlines-above crisp" d="M0,0" style="fill: none;"/><path class="ylines-above crisp" d="M0,0" style="fill: none;"/><g class="overlines-above"/><g class="xaxislayer-above"/><g class="yaxislayer-above"/><g class="overaxes-above"/></g></g><g class="polarlayer"/><g class="smithlayer"/><g class="ternarylayer"/><g class="geolayer"/><g class="funnelarealayer"/><g class="pielayer"/><g class="iciclelayer"/><g class="treemaplayer"/><g class="sunburstlayer"/><g class="glimages"/><defs id="topdefs-01e76b"><g class="clips"/></defs><g class="layer-above"><g class="imagelayer"/><g class="shapelayer"/></g><g class="infolayer"><g class="g-gtitle"/></g></svg>